<svg xmlns="http://www.w3.org/2000/svg" width="1112" height="1086" viewBox="0 0 1112 1086">
  <rect width="100%" height="100%" fill="#f5f5f0"/>
    <g>
    <rect x="24" y="24" width="520" height="330" rx="8" class="card"/>
    <text x="42" y="52" class="label">Setup</text>
    <rect x="40" y="66" width="488" height="34" rx="7" class="status"/>
    <g>
<rect x="54.00" y="82.00" width="5.00" height="9.40" rx="2.50" fill="none" stroke="#ffffff" stroke-width="1.20" opacity="0.42"/>
<rect x="61.00" y="75.20" width="5.00" height="16.20" rx="2.50" fill="none" stroke="#ffffff" stroke-width="1.20" opacity="0.42"/>
<rect x="68.00" y="82.00" width="5.00" height="9.40" rx="2.50" fill="none" stroke="#ffffff" stroke-width="1.20" opacity="0.42"/>
</g>
    <text x="46" y="128" class="section">Claude</text>
<text x="46" y="148" class="row">Not connected - Sign in with Claude CLI</text>
<text x="46" y="168" class="row">Log in with Claude</text>
<text x="46" y="188" class="row">Check again</text>
  </g>
  <g>
    <rect x="568" y="24" width="520" height="330" rx="8" class="card"/>
    <text x="586" y="52" class="label">Fetching</text>
    <rect x="584" y="66" width="488" height="34" rx="7" class="status"/>
    <g>
<rect x="598.00" y="82.00" width="5.00" height="9.40" rx="2.50" fill="none" stroke="#ffffff" stroke-width="1.20" opacity="0.42"/>
<rect x="605.00" y="75.20" width="5.00" height="16.20" rx="2.50" fill="none" stroke="#ffffff" stroke-width="1.20" opacity="0.42"/>
<rect x="612.00" y="82.00" width="5.00" height="9.40" rx="2.50" fill="none" stroke="#ffffff" stroke-width="1.20" opacity="0.42"/>
</g>
    <text x="590" y="128" class="section">Portfolio</text>
<text x="590" y="148" class="row">Fetching portfolio - Read-only through Claude</text>
  </g>
  <g>
    <rect x="24" y="378" width="520" height="330" rx="8" class="card"/>
    <text x="42" y="406" class="label">All quiet</text>
    <rect x="40" y="420" width="488" height="34" rx="7" class="status"/>
    <g>
<rect x="54.00" y="436.00" width="5.00" height="9.40" rx="2.50" fill="none" stroke="#ffffff" stroke-width="1.20" opacity="0.86"/>
<rect x="61.00" y="429.20" width="5.00" height="16.20" rx="2.50" fill="none" stroke="#ffffff" stroke-width="1.20" opacity="0.86"/>
<rect x="68.00" y="436.00" width="5.00" height="9.40" rx="2.50" fill="none" stroke="#ffffff" stroke-width="1.20" opacity="0.86"/>
</g>
    <text x="46" y="482" class="section">Pulse</text>
<text x="46" y="502" class="row">EUR 51,200.00 - All quiet</text>
<text x="46" y="522" class="row">All quiet - No attention items right now.</text>
<text x="68" y="542" class="child">Value - EUR 51,200.00</text>
<text x="68" y="562" class="child">Open holdings - 9</text>
<text x="68" y="582" class="child">Latest prices - 2026-06-22</text>
<text x="46" y="602" class="section">Allocation</text>
<text x="46" y="622" class="row">Nova Lithography - 11.7%</text>
<text x="68" y="642" class="child">Weight - [#---------] 11.7%</text>
<text x="68" y="662" class="child">Worth - EUR 6,000.00</text>
  </g>
  <g>
    <rect x="568" y="378" width="520" height="330" rx="8" class="card"/>
    <text x="586" y="406" class="label">Pressure</text>
    <rect x="584" y="420" width="488" height="34" rx="7" class="status"/>
    <g>
<rect x="598.00" y="436.00" width="5.00" height="9.40" rx="2.50" fill="#ffffff" opacity="0.36"/>
<rect x="598.00" y="436.00" width="5.00" height="9.40" rx="2.50" fill="none" stroke="#ffffff" stroke-width="1.20" opacity="0.42"/>
<rect x="605.00" y="429.20" width="5.00" height="16.20" rx="2.50" fill="none" stroke="#ffffff" stroke-width="1.20" opacity="0.42"/>
<rect x="612.00" y="436.00" width="5.00" height="9.40" rx="2.50" fill="none" stroke="#ffffff" stroke-width="1.20" opacity="0.42"/>
</g>
    <text x="590" y="482" class="section">Pulse</text>
<text x="590" y="502" class="row">EUR 64,000.00 - Nova Lithography concentration</text>
<text x="590" y="522" class="row">Nova Lithography concentration - 24.2%</text>
<text x="612" y="542" class="child">Pressure - allocation medium; score 0.66</text>
<text x="612" y="562" class="child">Readout - [##--------] 24.2%; line 20.0%</text>
<text x="612" y="582" class="child">Sources - Open holdings</text>
<text x="590" y="602" class="section">Allocation</text>
<text x="590" y="622" class="row">Nova Lithography - 24.2%</text>
<text x="612" y="642" class="child">Weight - [##--------] 24.2%</text>
<text x="612" y="662" class="child">Worth - EUR 15,500.00</text>
  </g>
  <g>
    <rect x="24" y="732" width="520" height="330" rx="8" class="card"/>
    <text x="42" y="760" class="label">Error</text>
    <rect x="40" y="774" width="488" height="34" rx="7" class="status"/>
    <g>
<rect x="54.00" y="790.00" width="5.00" height="9.40" rx="2.50" fill="none" stroke="#ffffff" stroke-width="1.20" opacity="0.42"/>
<rect x="61.00" y="783.20" width="5.00" height="16.20" rx="2.50" fill="none" stroke="#ffffff" stroke-width="1.20" opacity="0.42"/>
<rect x="68.00" y="790.00" width="5.00" height="9.40" rx="2.50" fill="none" stroke="#ffffff" stroke-width="1.20" opacity="0.42"/>
</g>
    <text x="46" y="836" class="section">Portfolio</text>
<text x="46" y="856" class="row">Could not fetch portfolio - No partial pulse published</text>
<text x="46" y="876" class="row">Try again</text>
<text x="46" y="896" class="row">Log in with Claude</text>
  </g>
  <style>
    .card { fill: #ffffff; stroke: #d7d3c8; }
    .status { fill: #18202a; }
    .label { font: 700 13px -apple-system, BlinkMacSystemFont, sans-serif; fill: #5b6470; }
    .section { font: 700 13px -apple-system, BlinkMacSystemFont, sans-serif; fill: #18202a; }
    .row { font: 13px -apple-system, BlinkMacSystemFont, sans-serif; fill: #2e3742; }
    .child { font: 12px -apple-system, BlinkMacSystemFont, sans-serif; fill: #697386; }
  </style>
</svg>
